<?xml version="1.0" encoding="UTF-8"?>
<svg version="1.1" xmlns="http://www.w3.org/2000/svg" width="1254" height="1254">

<path d="M0 0 C2.625 0.25 2.625 0.25 4.21777344 1.51635742 C11.7588413 10.80662857 11.63016782 31.43323502 13.8203125 43.32421875 C13.96934399 44.13249115 14.11837547 44.94076355 14.27192307 45.77352905 C17.95453212 65.78544211 21.3703281 85.84209595 24.76763916 105.90405273 C25.41360203 109.71525816 26.06190879 113.52606319 26.7103014 117.33685589 C29.63352329 134.51804054 32.54164346 151.70152 35.39453125 168.89453125 C37.08632049 179.0896903 38.84906197 189.26783049 40.6875 199.4375 C42.50457253 209.56273595 44.18087151 219.688492 45.625 229.875 C47.50281451 243.07312727 49.97422932 256.13624899 52.48561096 269.22409058 C54.10715714 277.71413406 55.59010087 286.22909952 57.06420898 294.74584961 C57.25571533 295.83776611 57.44722168 296.92968262 57.64453125 298.0546875 C57.89360229 299.49303955 57.89360229 299.49303955 58.14770508 300.96044922 C58.52673412 303.26619124 58.52673412 303.26619124 59.625 305.25 C59.90247172 306.77132941 60.13763893 308.30047308 60.3515625 309.83203125 C60.49271484 310.8080127 60.63386719 311.78399414 60.77929688 312.78955078 C60.93462891 313.86962402 61.08996094 314.94969727 61.25 316.0625 C62.93047312 327.39281637 64.96141167 338.62901702 67.125 349.875 C69.18498112 360.61155211 71.23554872 371.34564659 73.0625 382.125 C73.22621094 383.06811035 73.38992188 384.0112207 73.55859375 384.98291016 C74.36061572 389.81204914 74.79172777 394.35487256 74.625 399.25 C75.718125 398.55777344 76.81125 397.86554688 77.9375 397.15234375 C95.58303954 385.98769178 113.28793541 374.91945926 131.0534668 363.94677734 C135.89482696 360.95260344 140.72035502 357.93552291 145.52734375 354.88647461 C148.64513661 352.90954078 151.76945916 350.94302854 154.89355469 348.97607422 C157.47304953 347.34602162 160.04584648 345.70572316 162.61802673 344.06416321 C164.9695497 342.56812396 167.32852647 341.08412754 169.68911743 339.60244751 C170.84513966 338.87351447 171.99818544 338.1398373 173.14804077 337.4012146 C174.76387819 336.36428944 176.39153563 335.34585512 178.01953125 334.328125 C178.95643799 333.73418945 179.89334473 333.14025391 180.85864258 332.52832031 C184.05056128 331.0533502 186.1472589 330.85219415 189.625 331.25 C191.625 333.25 191.625 333.25 191.91064453 336.07446289 C191.60106371 339.51610203 190.88626714 341.16526751 189.0546875 344.05859375 C188.21538696 345.40836304 188.21538696 345.40836304 187.35913086 346.78540039 C186.74561768 347.74309326 186.13210449 348.70078613 185.5 349.6875 C184.20672976 351.75762418 182.91376958 353.82794209 181.62109375 355.8984375 C180.95577637 356.95385742 180.29045898 358.00927734 179.60498047 359.09667969 C176.54312495 363.97299607 173.55154301 368.89132947 170.5625 373.8125 C169.9835498 374.76390869 169.40459961 375.71531738 168.80810547 376.69555664 C158.22582969 394.10772713 148.01103031 411.69990249 138.140625 429.52587891 C137.13959906 431.32508114 136.12933159 433.11917628 135.109375 434.90771484 C134.65046875 435.71547363 134.1915625 436.52323242 133.71875 437.35546875 C133.31333984 438.0621167 132.90792969 438.76876465 132.49023438 439.49682617 C131.47747928 441.22306973 131.47747928 441.22306973 131.625 443.25 C144.39893331 446.10194301 144.39893331 446.10194301 157.3125 448.1875 C169.84932457 449.84135672 182.42000762 452.51678989 194.625 455.8125 C200.51080202 457.36691062 206.49455988 458.23371899 212.5 459.1875 C220.28631255 460.42487123 227.61658198 461.96353047 235.140625 464.3125 C240.25085506 465.68744979 245.42335785 466.40753758 250.65380859 467.17382812 C256.40299079 468.02418201 262.00393939 469.18822415 267.65234375 470.56640625 C270.6339648 471.25206155 273.60342464 471.77332383 276.625 472.25 C280.61711658 472.88169679 284.51102772 473.66782589 288.4375 474.625 C294.4615922 476.06444855 300.51674559 477.10737803 306.625 478.125 C313.91258463 479.34926733 321.08402862 480.75973075 328.25 482.5625 C338.89575934 485.22760934 349.65402424 487.2033006 360.43978882 489.20214844 C371.11583849 491.18157513 381.73554291 493.30115847 392.33007812 495.68530273 C398.27358713 497.00614425 404.19203685 497.95641772 410.234375 498.72265625 C414.97123994 499.45938064 419.59473012 500.57722303 424.23974609 501.75415039 C429.16431089 502.98317363 434.09914176 503.85211224 439.10888672 504.66064453 C446.38613453 505.88042485 453.62719795 507.30518724 460.875 508.6875 C463.25851078 509.14081915 465.6420941 509.59375552 468.02568054 510.04667664 C469.60351624 510.34651724 471.18132586 510.64649507 472.7591095 510.9466095 C480.3784242 512.39528565 488.00147519 513.82366237 495.625 515.25 C506.54634891 517.29389673 517.46484181 519.35185247 528.37792969 521.43945312 C530.94284104 521.92997338 533.5084545 522.41553832 536.07519531 522.89648438 C538.74041037 523.39703547 541.40184094 523.91337677 544.0625 524.4375 C544.77510986 524.56761475 545.48771973 524.69772949 546.22192383 524.83178711 C550.75669901 525.75341597 554.00733866 527.36906604 557.625 530.25 C558.3125 532.8125 558.3125 532.8125 557.625 535.25 C553.25787728 538.68943733 548.45762677 539.25391626 543.125 540.125 C542.17810303 540.28790527 541.23120605 540.45081055 540.25561523 540.61865234 C538.17486186 540.97583024 536.09335705 541.32865051 534.01123047 541.67773438 C530.42240544 542.28423804 526.83807677 542.91346757 523.25390625 543.546875 C512.35566108 545.46553548 501.47798904 547.37100875 490.49609375 548.7421875 C481.21542172 549.95963186 471.9748344 551.48096177 462.72686768 552.92248535 C458.96257088 553.50904099 455.19806424 554.09424786 451.43359375 554.6796875 C446.06158957 555.51516839 440.68964584 556.35103338 435.31787109 557.18798828 C423.71875393 558.99459277 412.11841012 560.79309995 400.51692772 562.58444214 C361.03201281 568.65547121 361.03201281 568.65547121 321.58642578 574.97509766 C308.65152771 577.09618727 295.70566284 579.14720551 282.75922966 581.19645214 C270.04693129 583.20870207 257.3358784 585.22880257 244.625 587.25 C243.57578369 587.41671204 242.52656738 587.58342407 241.44555664 587.75518799 C215.85626842 591.82322052 190.32446716 596.17891523 164.81103516 600.69921875 C150.09647781 603.30477069 135.37073323 605.82681193 120.625 608.25 C122.05997601 612.15808632 123.90330694 615.54597837 126.08203125 619.08984375 C126.4211705 619.64437729 126.76030975 620.19891083 127.10972595 620.77024841 C127.83737982 621.95944563 128.56668224 623.14763541 129.29748535 624.3348999 C131.23919896 627.49031446 133.16779909 630.65373146 135.09765625 633.81640625 C135.67947159 634.76894287 135.67947159 634.76894287 136.27304077 635.74072266 C139.68941947 641.33999047 143.04698344 646.97275297 146.375 652.625 C146.89707031 653.51155273 147.41914062 654.39810547 147.95703125 655.31152344 C148.99770864 657.08028669 150.03791624 658.84932643 151.07763672 660.61865234 C153.69073359 665.06231881 156.31442711 669.49971755 158.9375 673.9375 C159.4641626 674.82896729 159.9908252 675.72043457 160.53344727 676.63891602 C163.91334933 682.35878921 167.29780351 688.0759525 170.68711853 693.79025269 C172.41345414 696.70098743 174.13811416 699.6126837 175.85864258 702.52685547 C178.82658767 707.54975508 181.80429991 712.56316483 184.86328125 717.53125 C185.33677002 718.30879639 185.81025879 719.08634277 186.2980957 719.88745117 C187.14904658 721.28232171 188.01002823 722.67115084 188.88354492 724.05200195 C191.23016142 727.92471455 192.2600843 730.71840887 191.625 735.25 C189.625 737.25 189.625 737.25 186.84106445 737.56958008 C183.10467203 737.19829505 181.2852544 736.19821652 178.16796875 734.13671875 C177.14695068 733.47148193 176.12593262 732.80624512 175.07397461 732.12084961 C173.99768799 731.40034424 172.92140137 730.67983887 171.8125 729.9375 C170.68129791 729.19470611 169.54920866 728.4532616 168.41625977 727.71313477 C165.14399367 725.57155795 161.88502835 723.41015936 158.625 721.25 C155.77663054 719.38681518 152.92085195 717.53532348 150.0625 715.6875 C149.40677002 715.26210938 148.75104004 714.83671875 148.07543945 714.3984375 C128.80497241 701.92809099 109.28868978 689.69591345 89.40625 678.22265625 C88.60566162 677.75964111 87.80507324 677.29662598 86.98022461 676.81958008 C85.49030999 675.96205814 83.99651141 675.11123704 82.49829102 674.26831055 C80.84143065 673.31655852 79.22731334 672.29096598 77.625 671.25 C77.625 670.59 77.625 669.93 77.625 669.25 C76.965 669.25 76.305 669.25 75.625 669.25 C75.51325439 670.18166992 75.40150879 671.11333984 75.28637695 672.07324219 C73.96919251 682.90921289 72.43543712 693.70595291 70.8125 704.5 C70.68116669 705.37726746 70.54983337 706.25453491 70.41452026 707.15838623 C68.66042262 718.84611424 66.74316981 730.48490631 64.58837891 742.10620117 C62.54606134 753.30515059 60.87348894 764.55538137 59.1875 775.8125 C57.15448081 789.37967694 55.05813761 802.92504649 52.6875 816.4375 C50.31457489 829.99927898 48.12038329 843.5839882 46 857.1875 C45.75748505 858.74325745 45.75748505 858.74325745 45.5100708 860.33044434 C44.81279472 864.80530661 44.11579428 869.28021167 43.41925049 873.75518799 C40.95547474 889.57030449 38.45498025 905.37964338 35.95715714 921.18941116 C35.56245651 923.68777529 35.16785629 926.18615525 34.77328491 928.68453979 C31.13773483 951.70371615 27.49237509 974.72129921 23.82278442 997.7350769 C22.65407479 1005.06499334 21.48808145 1012.39534058 20.32287598 1019.72581482 C19.56302987 1024.50578103 18.80249141 1029.2856343 18.04003906 1034.06518555 C16.84902799 1041.53360172 15.65827916 1049.00176695 14.5078125 1056.4765625 C12.82990958 1067.33149826 10.9820996 1078.15085379 8.95779419 1088.94638062 C8.69707524 1090.34208146 8.43973513 1091.73841829 8.18600464 1093.13540649 C7.83155139 1095.07797494 7.46100966 1097.01758671 7.08984375 1098.95703125 C6.879646 1100.0756958 6.66944824 1101.19436035 6.45288086 1102.34692383 C5.6069156 1105.3134154 4.737551 1107.02245326 2.625 1109.25 C0.1875 1109.875 0.1875 1109.875 -2.375 1109.25 C-5.61577692 1105.14438008 -6.97890451 1101.80347012 -7.75390625 1096.6640625 C-7.95306641 1095.40207031 -8.15222656 1094.14007812 -8.35742188 1092.83984375 C-8.55139957 1091.51831978 -8.74475816 1090.19670479 -8.9375 1088.875 C-9.33287409 1086.30441598 -9.73001719 1083.73410343 -10.12890625 1081.1640625 C-10.2283252 1080.51027618 -10.32774414 1079.85648987 -10.43017578 1079.18289185 C-11.12072905 1074.69202407 -11.94171907 1070.23950056 -12.81640625 1065.78125 C-14.70240357 1056.04062944 -15.97638426 1046.21392034 -17.30776978 1036.38519287 C-19.55624143 1019.80909547 -21.87008497 1003.2595785 -24.77685547 986.78466797 C-25.85242061 980.64817624 -26.73851853 974.52039945 -27.4825592 968.3349762 C-28.90007356 956.73890629 -30.64481715 945.18465311 -32.32535553 933.62441635 C-32.62848089 931.5385473 -32.9309506 929.4525839 -33.2333374 927.36660767 C-35.63373887 910.82049211 -38.10373348 894.29112827 -40.85693359 877.79946899 C-42.82392634 865.9953322 -44.54357143 854.16638616 -46.19726562 842.31451416 C-50.22543602 813.45458157 -54.94804253 784.72325688 -59.75164795 755.98416138 C-60.40888955 752.04698623 -61.06339056 748.10936285 -61.71728516 744.17163086 C-61.94186149 742.82028327 -62.1664605 741.46893945 -62.39108276 740.11759949 C-62.8139101 737.57356178 -63.23640061 735.02946806 -63.65847778 732.48530579 C-64.89660746 725.04490197 -66.18087916 717.6139403 -67.5 710.1875 C-68.71041659 703.30512224 -69.80485483 696.42373785 -70.75 689.5 C-72.11382724 679.52503103 -73.79667075 669.60892011 -75.5 659.6875 C-75.63428406 658.90258179 -75.76856812 658.11766357 -75.90692139 657.30895996 C-76.292617 655.05846939 -76.68086665 652.8084381 -77.0703125 650.55859375 C-77.18687195 649.88032028 -77.3034314 649.20204681 -77.42352295 648.5032196 C-77.86220343 645.98800485 -78.31010852 643.4996649 -78.95263672 641.02758789 C-79.64280287 638.12290596 -79.43209227 635.21879782 -79.375 632.25 C-86.05494625 637.4572022 -92.1768312 642.89995601 -98.09594727 648.93969727 C-101.41680873 652.32118408 -104.8424009 655.47381319 -108.44921875 658.54296875 C-111.49436253 661.24221385 -114.30342701 664.17061063 -117.16015625 667.06640625 C-119.15159461 669.02974671 -121.18802578 670.87079669 -123.3125 672.6875 C-127.40278779 676.19229928 -131.1420907 680.00198614 -134.92578125 683.83203125 C-137.6854604 686.55649918 -140.56680657 689.08547376 -143.51171875 691.60546875 C-145.37951793 693.25398752 -147.12955624 694.97303581 -148.875 696.75 C-152.53110586 700.46413929 -156.42579567 703.85323635 -160.375 707.25 C-161.87611215 708.56122788 -163.37614686 709.87369046 -164.875 711.1875 C-166.04160126 712.20840807 -167.20825669 713.22925426 -168.375 714.25 C-161.08166693 710.33338826 -153.91578737 706.25023785 -146.8125 702 C-138.65377122 697.14927366 -130.43141602 692.44874681 -122.1171875 687.87109375 C-116.40897725 684.72628133 -110.73588012 681.51959936 -105.0625 678.3125 C-104.07709229 677.75626953 -103.09168457 677.20003906 -102.07641602 676.62695312 C-100.68314087 675.83901367 -100.68314087 675.83901367 -99.26171875 675.03515625 C-98.02748169 674.33724976 -98.02748169 674.33724976 -96.76831055 673.62524414 C-95.05746464 672.64215784 -93.36817008 671.62117836 -91.69458008 670.57592773 C-89.375 669.25 -89.375 669.25 -87.375 669.25 C-87.045 670.9 -86.715 672.55 -86.375 674.25 C-87.28270142 674.69243042 -87.28270142 674.69243042 -88.20874023 675.14379883 C-94.41332517 678.20221205 -100.44755633 681.47982582 -106.4375 684.9375 C-107.8140979 685.72894409 -107.8140979 685.72894409 -109.21850586 686.53637695 C-111.93970522 688.10352892 -114.65794745 689.67567152 -117.375 691.25 C-118.44814453 691.87068359 -118.44814453 691.87068359 -119.54296875 692.50390625 C-126.71875791 696.66276244 -133.83656515 700.91288102 -140.91796875 705.23046875 C-141.50043365 705.58557022 -142.08289856 705.94067169 -142.68301392 706.30653381 C-146.31633881 708.52193596 -146.31633881 708.52193596 -149.94921875 710.73806763 C-158.72308111 716.08743479 -167.56220358 721.30144379 -176.52685547 726.32641602 C-181.08915892 728.89356288 -185.4395703 731.59361135 -189.75 734.5625 C-192.85479937 736.60435054 -194.75801888 737.69155377 -198.5 737.25 C-201.375 736.25 -201.375 736.25 -202.375 735.25 C-202.14390693 728.85367399 -199.64036423 724.90628159 -196.125 719.6875 C-195.01664297 717.98886026 -193.91128167 716.28826286 -192.80859375 714.5859375 C-192.23737793 713.70647461 -191.66616211 712.82701172 -191.07763672 711.92089844 C-188.3343901 707.61761224 -185.76118044 703.21859905 -183.1875 698.8125 C-176.47957931 687.37346253 -169.60011545 676.04166235 -162.70133972 664.71730042 C-159.6911608 659.77443346 -156.69489916 654.82323077 -153.70149231 649.87019348 C-150.53342186 644.63056765 -147.34411834 639.40412538 -144.15185547 634.17919922 C-142.63249267 631.67448435 -141.139795 629.15717099 -139.66015625 626.62890625 C-138.91987192 625.39807578 -138.17905909 624.16756287 -137.4375 622.9375 C-136.87160156 621.97199219 -136.30570312 621.00648438 -135.72265625 620.01171875 C-129.30656699 612.46400643 -119.76067885 608.09822844 -111.125 603.5625 C-108.80565108 602.33006391 -106.48664582 601.09698087 -104.16796875 599.86328125 C-103.01989746 599.25436035 -101.87182617 598.64543945 -100.68896484 598.01806641 C-95.9150114 595.47106693 -91.17755482 592.85933755 -86.4375 590.25 C-75.98658346 584.52040251 -65.40946658 579.04316327 -54.81640625 573.58203125 C-50.02263773 571.10917322 -45.24891614 568.60201 -40.48706055 566.06835938 C-16.37787957 553.25 -16.37787957 553.25 -11.375 553.25 C-11.045 554.24 -10.715 555.23 -10.375 556.25 C-8.395 556.58 -6.415 556.91 -4.375 557.25 C-4.37114778 557.93519445 -4.36729556 558.6203889 -4.36332661 559.32634681 C-4.13513219 599.89292831 -3.90178482 640.45947729 -3.66170079 681.02599024 C-3.63290926 685.89159418 -3.60416099 690.75719838 -3.57543945 695.62280273 C-3.56972053 696.59149961 -3.56400161 697.56019649 -3.5581094 698.55824781 C-3.46548584 714.26474983 -3.37637106 729.97126992 -3.28854198 745.6777994 C-3.19841353 761.78163335 -3.10453998 777.88544231 -3.00715441 793.98923403 C-2.94713096 803.93447607 -2.89006535 813.8797262 -2.83672559 823.82500637 C-2.79992112 830.6351966 -2.75949492 837.44535918 -2.71616179 844.25551098 C-2.69123079 848.19071904 -2.66795296 852.12591948 -2.6489563 856.06116104 C-2.63155887 859.6578544 -2.60965438 863.25448997 -2.5840345 866.85113389 C-2.57149694 868.78101364 -2.56389865 870.71092349 -2.55642754 872.6408295 C-2.5474697 873.77144072 -2.53851186 874.90205193 -2.52928257 876.0669241 C-2.52358676 877.05077947 -2.51789096 878.03463485 -2.51202255 879.04830402 C-2.62033376 881.22527275 -2.62033376 881.22527275 -1.375 882.25 C-0.1298445 894.09624773 -0.17274605 906.07066109 -0.05859375 917.96875 C-0.03795909 919.80676673 -0.01696126 921.64477942 0.00437927 923.48278809 C0.05892907 928.26325146 0.10862703 933.04375271 0.15722656 937.82427979 C0.20793947 942.7253344 0.26336254 947.62633567 0.31835938 952.52734375 C0.42511707 962.10151667 0.5267362 971.67573639 0.625 981.25 C0.67576691 980.65883392 0.72653381 980.06766785 0.77883911 979.45858765 C1.78015578 967.88976645 2.8757706 956.37480784 4.5 944.875 C4.85674387 942.2801229 5.21217055 939.68506444 5.56640625 937.08984375 C5.74445801 935.78644043 5.92250977 934.48303711 6.10595703 933.14013672 C6.7682071 928.17668772 7.37394022 923.2073399 7.97631836 918.23632812 C10.16034137 900.24617561 12.71938385 882.3156954 15.30680847 864.37971497 C15.45950699 863.32112778 15.61220551 862.26254059 15.76953125 861.171875 C16.00021049 859.57317818 16.00021049 859.57317818 16.23554993 857.94218445 C17.7557732 847.38432911 19.22346805 836.81935319 20.69024658 826.25396729 C23.73629664 804.33121613 26.94199327 782.43536109 30.23023987 760.54776001 C31.96801843 748.977601 33.68881054 737.40492659 35.40579224 725.83166504 C35.92310906 722.34693955 36.44185679 718.86242918 36.96069336 715.37792969 C38.39986611 705.69258058 39.8177034 696.00860542 41.08618164 686.29931641 C42.22919842 677.62182858 43.48050758 668.95853 44.71166992 660.29321289 C45.03216057 658.03300562 45.35114121 655.77258378 45.66870117 653.51196289 C46.13125397 650.21973096 46.5983072 646.92816609 47.06640625 643.63671875 C47.27892784 642.11506355 47.27892784 642.11506355 47.4957428 640.56266785 C47.62935715 639.63021744 47.7629715 638.69776703 47.90063477 637.73706055 C48.01673599 636.91626511 48.13283722 636.09546967 48.25245667 635.24980164 C48.625 633.25 48.625 633.25 49.625 631.25 C54.30074494 632.79972607 57.75173753 635.37290343 61.625 638.3125 C62.9742483 639.31906645 64.32452479 640.32425601 65.67578125 641.328125 C66.34561035 641.82634766 67.01543945 642.32457031 67.70556641 642.83789062 C71.97253362 645.97705857 76.36226588 648.9418251 80.72705078 651.94238281 C98.36144371 664.09183078 115.64162316 676.66377264 132.6875 689.625 C133.53175537 690.26679199 134.37601074 690.90858398 135.24584961 691.56982422 C141.10764498 696.04547399 146.88354356 700.62114616 152.625 705.25 C152.73781286 704.05317432 152.73781286 704.05317432 151.32739258 702.83886719 C150.73079834 702.24750977 150.1342041 701.65615234 149.51953125 701.046875 C148.86533203 700.39589844 148.21113281 699.74492188 147.53710938 699.07421875 C146.84423828 698.38972656 146.15136719 697.70523438 145.4375 697 C144.42719727 695.99646484 144.42719727 695.99646484 143.39648438 694.97265625 C142.07388854 693.65909278 140.75001782 692.34681158 139.42480469 691.03588867 C137.92164686 689.5443532 136.43007146 688.04115672 134.94140625 686.53515625 C131.85458686 683.48998029 128.591039 680.66901463 125.3203125 677.82421875 C123.19933123 675.79852794 121.33324258 673.79548958 119.43431091 671.57496643 C115.77709277 667.3711399 111.9254499 663.4091891 107.98071289 659.47631836 C107.25126968 658.74512283 106.52182648 658.01392731 105.77027893 657.26057434 C103.3818968 654.86782628 100.98991712 652.47871339 98.59765625 650.08984375 C96.92274121 648.41425416 95.24797456 646.73851623 93.573349 645.06263733 C90.07241325 641.56023173 86.56968672 638.0596297 83.06567383 634.56030273 C78.58929169 630.08961742 74.11741437 625.61445728 69.64687443 621.13793087 C66.19217581 617.6796074 62.73508495 614.22368321 59.27728081 610.76846504 C57.62803321 609.11988139 55.97951943 607.47056325 54.33177376 605.82047844 C52.02316376 603.50931024 49.71134014 601.20140329 47.39868164 598.89428711 C46.72778503 598.22136627 46.05688843 597.54844543 45.36566162 596.85513306 C41.49419595 593.00071546 37.50814988 589.33931681 33.37394047 585.76834011 C31.44618263 584.09475997 29.58957756 582.36503605 27.76342773 580.58129883 C27.12014023 579.95407425 26.47685272 579.32684967 25.81407166 578.68061829 C22.96975711 575.88153369 20.12806253 573.079928 17.29467773 570.26977539 C15.79571733 568.7875375 14.2913911 567.31070804 12.78198242 565.83911133 C10.59125721 563.70280526 8.41712662 561.55082429 6.24609375 559.39453125 C5.56606796 558.73717484 4.88604218 558.07981842 4.18540955 557.40254211 C3.57049149 556.78477402 2.95557343 556.16700592 2.32202148 555.53051758 C1.77545395 554.9920369 1.22888641 554.45355621 0.66575623 553.89875793 C-0.375 552.25 -0.375 552.25 -0.17100525 550.18144226 C1.7438208 545.53527196 6.85343243 542.39297298 10.625 539.25 C11.264375 538.71375 11.90375 538.1775 12.5625 537.625 C18.98991291 532.62590107 26.02392436 531.9533886 33.90917969 531.94702148 C34.71564941 531.93855949 35.52211914 531.9300975 36.35302734 531.92137909 C39.08431804 531.89525332 41.81548858 531.88320321 44.546875 531.87109375 C46.57530322 531.85505787 48.6037253 531.83822892 50.63214111 531.82069397 C56.32828921 531.77422891 62.02445576 531.74062104 67.72070312 531.70901489 C72.65811286 531.6799456 77.59545496 531.64326455 82.53281403 531.6067028 C118.90716651 531.33887683 155.28227853 531.18581584 191.65720463 531.01982236 C195.14731181 531.0038757 198.63741861 530.98784794 202.12752533 530.97179985 C209.18169556 530.93939096 216.23586685 530.90722015 223.29003906 530.87524414 C225.04805131 530.86727485 225.04805131 530.86727485 226.84157896 530.85914457 C240.86024237 530.79582047 254.87891375 530.73627967 268.89761519 530.6820218 C281.14008915 530.63461226 293.38255057 530.58463149 305.625 530.53125 C306.69386727 530.52659957 307.76273455 530.52194914 308.86399174 530.51715779 C347.1222258 530.3484847 385.37256753 529.93703428 423.625 529.25 C422.46321653 529.07879765 422.46321653 529.07879765 421.27796268 528.90413666 C417.73282528 528.38136488 414.18782305 527.85768181 410.64282227 527.33398438 C409.42446938 527.15446228 408.20611649 526.97494019 406.95084381 526.78997803 C398.47035787 525.53627786 390.01175179 524.19997362 381.5625 522.75 C372.65517586 521.24420677 363.74503342 519.78561191 354.8125 518.4375 C342.10930821 516.51292826 329.42975551 514.44750701 316.75 512.375 C315.14357635 512.11243912 315.14357635 512.11243912 313.50469971 511.84457397 C299.52294148 509.55754073 285.54621897 507.24198117 271.57440186 504.89505005 C259.09911855 502.80154726 246.60869405 500.80899412 234.11529541 498.82681274 C212.70844823 495.4290317 191.34874189 491.82094752 170.00878906 488.02734375 C152.44670217 484.90845453 134.86529453 481.92300767 117.24609375 479.14453125 C111.36632942 478.21581825 105.49521447 477.23707286 99.625 476.25 C101.00760786 472.53382188 102.70391238 469.24905971 104.75 465.85546875 C105.678125 464.31137329 105.678125 464.31137329 106.625 462.73608398 C107.285 461.64755127 107.945 460.55901855 108.625 459.4375 C109.305625 458.30965088 109.98625 457.18180176 110.6875 456.01977539 C115.91535983 447.37536559 121.23382711 438.79310993 126.625 430.25 C134.57039291 417.65024656 142.4278923 405.01726916 149.96289062 392.16699219 C155.07123838 383.45856665 160.32964686 374.84566341 165.625 366.25 C161.60378964 370.2182997 157.72419571 374.30259513 153.875 378.4375 C153.25810303 379.09951416 152.64120605 379.76152832 152.00561523 380.44360352 C146.62106541 386.23331346 141.26561095 392.05027253 136.08618164 398.02514648 C131.81746174 402.94273584 127.41932104 407.71398252 122.9375 412.4375 C121.52819066 413.92925762 120.11934095 415.42144958 118.7109375 416.9140625 C117.67598145 418.01089355 117.67598145 418.01089355 116.62011719 419.12988281 C110.06889934 426.09155386 103.5682919 433.09768733 97.3046875 440.3203125 C90.98855417 447.57652149 84.43703826 454.61225003 77.86474609 461.63525391 C71.57309994 468.36327541 65.33153228 475.13216101 59.2890625 482.0859375 C55.7620541 486.12417514 52.12013192 490.04138922 48.4375 493.9375 C44.2316655 498.40108962 40.03922793 502.87411333 35.90087891 507.40039062 C31.38113045 512.34089645 26.78572609 517.1905824 22.0625 521.9375 C21.56145752 522.44313477 21.06041504 522.94876953 20.54418945 523.46972656 C18.32579284 525.67860869 16.24159946 527.50560036 13.625 529.25 C11 529 11 529 8.625 528.25 C6.95486515 524.90973029 7.39035814 521.14578449 7.32617188 517.46850586 C7.30673523 516.55524851 7.28729858 515.64199116 7.26727295 514.70105934 C7.20411099 511.64323475 7.14860967 508.58532788 7.09375 505.52734375 C7.05184212 503.35798561 7.00988977 501.18862832 6.96789551 499.01927185 C6.5434926 476.34385131 6.35092404 453.66646996 6.17999268 430.98797607 C6.12374309 423.55395583 6.06129206 416.11999458 5.99755859 408.68603516 C5.98678724 407.42924454 5.97601589 406.17245392 5.96491814 404.87757874 C5.9431918 402.34733301 5.92143476 399.81708754 5.89964676 397.28684235 C5.86735654 393.53137867 5.83529899 389.77591307 5.80331421 386.02044678 C5.74431458 379.09696071 5.68483078 372.17347893 5.625 365.25 C5.6168074 364.29921822 5.60861481 363.34843643 5.60017395 362.36884308 C5.49855215 350.62072039 5.38589255 338.87277979 5.25 327.125 C5.24154682 326.39113319 5.23309364 325.65726639 5.22438431 324.90116119 C4.47775114 261.01226811 2.94511355 197.12907728 1.625 133.25 C0.76120934 136.50278931 0.44764233 139.44509582 0.34375 142.81738281 C0.30697647 143.94520676 0.27020294 145.0730307 0.23231506 146.23503113 C0.17919411 148.07548759 0.17919411 148.07548759 0.125 149.953125 C0.06456764 151.88137871 0.06456764 151.88137871 0.00291443 153.84858704 C-0.10609148 157.34074541 -0.20925187 160.83305399 -0.31108475 164.32542801 C-0.37501274 166.50043349 -0.44071583 168.67537792 -0.50704956 170.85031128 C-1.14269132 191.69941362 -1.68007098 212.54921515 -2.03320312 233.40527344 C-2.1867537 242.16380801 -2.42713209 250.90609291 -2.84375 259.65625 C-3.32579442 269.92305001 -3.60203681 280.19011895 -3.83984375 290.46484375 C-3.85886372 291.28493361 -3.87788368 292.10502346 -3.89748001 292.94996452 C-3.99657064 297.24271733 -4.09409555 301.53550428 -4.19094849 305.82830811 C-4.78108285 331.93393258 -5.43342346 358.03159049 -6.4375 384.125 C-7.12433401 401.99882015 -7.62093221 419.86570753 -7.9375 437.75 C-7.9774259 439.92993372 -8.01746291 442.1098654 -8.05761719 444.28979492 C-8.26915366 455.81137097 -8.26915366 455.81137097 -8.44726562 467.33349609 C-8.82160969 493.73201623 -10.52220674 518.97227648 -30.40234375 538.47265625 C-31.38923729 539.40269172 -32.37979379 540.32886513 -33.375 541.25 C-34.49068359 542.29994141 -34.49068359 542.29994141 -35.62890625 543.37109375 C-56.21732088 561.08670634 -83.17868511 572.88480683 -106.9309082 585.67431641 C-112.19688885 588.51204834 -117.42841533 591.39873256 -122.62939453 594.35375977 C-142.24248715 605.45675751 -160.93217178 612.40300604 -183.75 612.5 C-184.92433594 612.520625 -186.09867187 612.54125 -187.30859375 612.5625 C-195.83934106 612.59963057 -203.84574141 611.48612937 -212.16412354 609.71759033 C-214.48916663 609.22585428 -216.81767843 608.75488552 -219.14794922 608.28857422 C-222.61473024 607.59466154 -226.08052517 606.89619244 -229.54541016 606.19287109 C-246.99921287 602.6541063 -264.47017381 599.26627113 -282 596.125 C-295.13151514 593.77154724 -308.2374133 591.3374453 -321.3125 588.6875 C-345.72708676 583.74688097 -370.16908017 579.03664446 -394.75360107 575.01672363 C-410.4626187 572.44583523 -426.12428061 569.62980045 -441.78564453 566.78442383 C-452.86037197 564.77409105 -463.93914511 562.79517614 -475.03125 560.8828125 C-477.29811267 560.49008815 -479.56495853 560.09726674 -481.83178711 559.7043457 C-485.07101923 559.14301519 -488.31052923 558.58402614 -491.55178833 558.03451538 C-536.02745979 550.49217698 -536.02745979 550.49217698 -553.375 543.25 C-555.52262184 540.02856724 -555.936068 538.9904533 -555.375 535.25 C-547.79546069 528.1077418 -533.24644999 527.23238135 -523.375 525.25 C-522.12332031 524.99508789 -520.87164063 524.74017578 -519.58203125 524.47753906 C-506.66016135 521.86616219 -493.71433285 519.34486401 -480.67553711 517.38671875 C-473.0930916 516.22423795 -465.53512107 514.93257328 -457.97592354 513.62918854 C-455.42329079 513.18923056 -452.87036859 512.75098697 -450.31736755 512.31317139 C-443.06508635 511.06926193 -435.81317489 509.82321277 -428.56176758 508.57421875 C-423.230432 507.65621304 -417.89864087 506.7408941 -412.56640625 505.828125 C-411.68717121 505.67758163 -410.80793617 505.52703827 -409.90205765 505.37193298 C-395.32987485 502.88145691 -380.73901539 500.52522416 -366.12733459 498.27813721 C-357.6748105 496.97218542 -349.26484185 495.5276062 -340.86468506 493.91731262 C-335.81518175 492.95172483 -330.75306468 492.06420653 -325.6875 491.1875 C-324.70273682 491.01613525 -323.71797363 490.84477051 -322.70336914 490.66821289 C-317.58052354 489.78251685 -312.45660948 488.94213709 -307.3125 488.1875 C-303.23872731 487.5830047 -299.26367511 486.79592914 -295.25 485.875 C-286.72507548 483.97194168 -278.08673235 482.8214181 -269.44091797 481.60791016 C-268.30025879 481.44597168 -267.15959961 481.2840332 -265.984375 481.1171875 C-264.95280273 480.97394043 -263.92123047 480.83069336 -262.85839844 480.68310547 C-260.38365446 480.37386676 -260.38365446 480.37386676 -258.375 479.25 C-256.52644551 478.92465441 -254.67064858 478.64011757 -252.8125 478.375 C-237.46227034 476.07916871 -222.30713312 473.04776836 -207.12792969 469.82250977 C-204.5649435 469.28950137 -201.99727003 468.79462975 -199.42578125 468.3046875 C-185.21432272 465.47481618 -170.4200736 461.61788809 -157.375 455.25 C-156.77993652 454.96543945 -156.18487305 454.68087891 -155.57177734 454.38769531 C-150.79226716 452.09704355 -146.07500477 449.6990357 -141.375 447.25 C-140.77397461 446.94223633 -140.17294922 446.63447266 -139.55371094 446.31738281 C-114.83015472 433.54837695 -94.95129837 412.31838459 -81.375 388.25 C-80.75753906 387.16332031 -80.14007812 386.07664062 -79.50390625 384.95703125 C-74.56108084 375.71979408 -71.8418982 366.38058373 -69.375 356.25 C-69.19340332 355.52345215 -69.01180664 354.7969043 -68.82470703 354.04833984 C-66.45404436 344.5506714 -64.50328249 335.00283535 -62.76367188 325.36962891 C-62.37075783 323.22686525 -61.96169664 321.08784416 -61.546875 318.94921875 C-53.60697889 278.00858888 -46.47797333 236.87006213 -39.88043213 195.69345093 C-38.02329156 184.11241102 -36.05109697 172.55715476 -33.98486328 161.01123047 C-32.27910525 151.45926513 -30.62371274 141.89912287 -28.990942 132.33444405 C-28.6205258 130.16464185 -28.24973658 127.99490368 -27.87886047 125.82518005 C-26.75587507 119.25386976 -25.6343057 112.68233202 -24.51887608 106.10973454 C-24.04861249 103.34261117 -23.57581456 100.57592479 -23.1024189 97.80933571 C-22.77460139 95.88853342 -22.44999188 93.96718449 -22.12547302 92.04582214 C-20.47409724 82.41165868 -20.47409724 82.41165868 -19.30957031 77.99487305 C-18.21222105 73.59773609 -17.61253529 69.23492283 -17.03125 64.74609375 C-15.54571494 53.86970787 -13.58487947 43.11158123 -11.46826172 32.34204102 C-10.86559034 29.26444876 -10.27826459 26.18415785 -9.69140625 23.10351562 C-9.30560293 21.12221736 -8.91891802 19.14109051 -8.53125 17.16015625 C-8.35928101 16.25080826 -8.18731201 15.34146027 -8.01013184 14.40455627 C-5.24395508 0.55199527 -5.24395508 0.55199527 0 0 Z " fill="#020202" transform="translate(629.375,63.75)"/>
<path d="M0 0 C0.38502136 9.23134536 -1.06632445 18.00547416 -2.625 27.0625 C-2.76004944 27.85790192 -2.89509888 28.65330383 -3.03424072 29.47280884 C-7.62770995 56.41245652 -14.12277568 82.85066511 -25 108 C-25.33604248 108.77819092 -25.67208496 109.55638184 -26.01831055 110.3581543 C-28.29985523 115.59235602 -30.6469855 120.79761482 -33 126 C-33.3290332 126.72944824 -33.65806641 127.45889648 -33.99707031 128.21044922 C-38.79818833 138.80115072 -44.10225999 148.97975154 -50 159 C-50.41620605 159.71269043 -50.83241211 160.42538086 -51.26123047 161.15966797 C-57.75724416 172.23247415 -64.86982867 182.71636313 -72.52783203 193.01660156 C-73.83044955 194.77157084 -75.11937538 196.53534007 -76.40234375 198.3046875 C-82.20682888 206.21894029 -88.54462008 213.61734104 -95 221 C-95.67289063 221.77472656 -96.34578125 222.54945313 -97.0390625 223.34765625 C-98.14308494 224.61551763 -99.25089265 225.88009748 -100.36328125 227.140625 C-101.55737788 228.49716437 -102.74085481 229.86307322 -103.91796875 231.234375 C-107.65353173 235.54074934 -111.46964709 239.45858541 -115.82421875 243.13671875 C-118.32205951 245.27580321 -120.7165547 247.51081586 -123.125 249.75 C-129.47969275 255.53094484 -136.17582718 260.78767168 -143 266 C-143.76022461 266.58475098 -144.52044922 267.16950195 -145.30371094 267.77197266 C-196.38709257 307 -196.38709257 307 -209 307 C-209 307.66 -209 308.32 -209 309 C-209.59425781 309.21914063 -210.18851563 309.43828125 -210.80078125 309.6640625 C-215.44275735 311.43999737 -219.76597968 313.37089307 -224.0625 315.875 C-229.37237638 318.85993051 -234.79936091 320.81936747 -240.54931641 322.75170898 C-244.98330523 324.25128303 -249.19126997 325.95136015 -253.4375 327.9375 C-263.22413304 332.24814415 -273.66254517 334.60574677 -283.99951172 337.23339844 C-286.52740751 337.87925627 -289.04800215 338.54491523 -291.56640625 339.2265625 C-299.30834464 341.29342343 -307.05463446 342.74513543 -314.97265625 343.92016602 C-321.36949653 344.8701073 -327.67331873 346.09582563 -333.99609375 347.44921875 C-337 348 -337 348 -341 348 C-341.23581352 341.21019701 -340.32722744 334.87249897 -339.1875 328.1875 C-338.81851091 325.97143728 -338.45002703 323.75529038 -338.08203125 321.5390625 C-337.80673584 319.89405762 -337.80673584 319.89405762 -337.52587891 318.21582031 C-337.03556956 315.21751264 -336.57741724 312.21688807 -336.13671875 309.2109375 C-336.00692627 308.33671143 -335.87713379 307.46248535 -335.7434082 306.56176758 C-335.50282673 304.92967177 -335.26802783 303.29671018 -335.03979492 301.6628418 C-334.22300005 296.22300005 -334.22300005 296.22300005 -332 294 C-330.20068359 293.68701172 -330.20068359 293.68701172 -328.0234375 293.5546875 C-322.66816552 293.06434073 -317.75995905 291.67303913 -312.625 290.125 C-310.86739617 289.60606356 -309.10958282 289.08783623 -307.3515625 288.5703125 C-306.02608398 288.17682617 -306.02608398 288.17682617 -304.67382812 287.77539062 C-302.0439816 287.01275434 -299.40461196 286.30281786 -296.7578125 285.6015625 C-280.30007313 281.14165187 -263.17706589 275.9024452 -248.01123047 268.02392578 C-245.59196415 266.79226726 -243.1433138 265.63015342 -240.69140625 264.46484375 C-219.76310429 254.4152348 -199.72931097 242.64294817 -181.51611328 228.19873047 C-180.20002312 227.15815033 -178.86523294 226.14130581 -177.52734375 225.12890625 C-159.24659662 211.29393066 -141.98048632 195.19341597 -128 177 C-127.12765556 175.94722887 -126.25104982 174.8979798 -125.37109375 173.8515625 C-112.56396602 158.49169202 -101.55498305 141.55078477 -92 124 C-91.15082159 122.50125085 -90.29908337 121.00395029 -89.4453125 119.5078125 C-83.56745121 109.26686595 -83.56745121 109.26686595 -78.92602539 98.4309082 C-77.97429678 95.93252651 -76.8701572 93.56088751 -75.71875 91.1484375 C-72.58592722 84.28538582 -70.14448141 77.22690878 -67.8125 70.0625 C-67.46474014 69.00255829 -67.46474014 69.00255829 -67.10995483 67.92120361 C-60.62850843 47.98860998 -56.35089473 27.4813547 -52 7 C-47.72622604 5.72505622 -43.57664387 4.66248949 -39.1640625 3.96484375 C-37.56691406 3.71057617 -37.56691406 3.71057617 -35.9375 3.45117188 C-34.844375 3.28166016 -33.75125 3.11214844 -32.625 2.9375 C-31.53960938 2.76412109 -30.45421875 2.59074219 -29.3359375 2.41210938 C-19.45143689 0.85422613 -10.00920759 -0.12669883 0 0 Z " fill="#030202" transform="translate(1017,645)"/>
<path d="M0 0 C6.59229556 0.57968105 13.07243819 1.43035063 19.5859375 2.59375 C20.45014313 2.74533569 21.31434875 2.89692139 22.20474243 3.05310059 C24.01163569 3.37075567 25.81822423 3.69014869 27.62451172 4.01123047 C30.38830864 4.50236498 33.15303799 4.98794965 35.91796875 5.47265625 C37.68234817 5.78353367 39.4466731 6.09472052 41.2109375 6.40625 C42.44534073 6.62347717 42.44534073 6.62347717 43.7046814 6.84509277 C44.85705795 7.05035583 44.85705795 7.05035583 46.03271484 7.25976562 C46.70426605 7.37888306 47.37581726 7.49800049 48.06771851 7.62072754 C50.06565055 8.01288603 52.02925363 8.48962643 54 9 C54.15855469 9.94617188 54.31710937 10.89234375 54.48046875 11.8671875 C56.89331038 25.73703208 60.57913295 39.10969069 65.171875 52.4140625 C65.92163431 54.75529203 66.46769714 57.02758535 66.9375 59.4375 C68.81814503 68.56027809 72.97837876 77.16951123 76.87890625 85.578125 C78.61362173 89.32559399 80.20653107 93.13356877 81.82202148 96.93359375 C91.0792639 118.26071498 103.6373371 138.73819494 118 157 C118.88377138 158.1503056 119.76653695 159.30138447 120.6484375 160.453125 C125.75346162 167.08201006 131.03562685 173.4125886 136.73046875 179.546875 C138.72469454 181.70242371 140.65283403 183.89486135 142.5625 186.125 C148.83653228 193.32688212 155.73507801 199.81601796 163 206 C163.91007813 206.79921875 164.82015625 207.5984375 165.7578125 208.421875 C192.50283431 231.74102372 225.60489066 253.59956438 259.36083984 265.07373047 C261.78431383 265.92430034 264.14608972 266.85593911 266.51953125 267.8359375 C288.1554472 276.54070835 311.67459965 284.69134263 335 287 C336.6433825 290.71173344 337.45179118 294.10466877 338 298.12109375 C338.165 299.30509766 338.33 300.48910156 338.5 301.70898438 C338.665 302.93939453 338.83 304.16980469 339 305.4375 C339.165 306.63310547 339.33 307.82871094 339.5 309.06054688 C339.83405645 311.48115122 340.16477186 313.90221894 340.4921875 316.32373047 C341.16255573 321.17680967 341.89389797 326.02043799 342.6328125 330.86352539 C342.99316398 333.94160747 343.06521789 336.90418825 343 340 C307.7858378 339.42271865 268.75221273 327.74825996 237 313 C233.71952843 311.5685215 230.42655941 310.17571011 227.1171875 308.8125 C226.06789063 308.379375 225.01859375 307.94625 223.9375 307.5 C222.95652344 307.0978125 221.97554687 306.695625 220.96484375 306.28125 C217.91178515 304.96187817 214.96548828 303.505324 212 302 C210.87207031 301.4534375 209.74414062 300.906875 208.58203125 300.34375 C193.43931161 292.97004422 178.81779816 284.64440227 165 275 C164.36384766 274.56075195 163.72769531 274.12150391 163.07226562 273.66894531 C147.59873389 262.97932587 133.05335659 251.4948363 119 239 C118.15888672 238.25580811 118.15888672 238.25580811 117.30078125 237.49658203 C104.88474798 226.46297527 93.65806327 214.50209574 83.56640625 201.30859375 C81.21102853 198.23678495 78.71607078 195.30649751 76.1875 192.375 C65.46967718 179.59211897 56.19076827 165.517384 48 151 C47.54415527 150.19900879 47.08831055 149.39801758 46.61865234 148.57275391 C38.95607395 135.04773498 32.15404993 121.27252824 26 107 C25.70931641 106.33516602 25.41863281 105.67033203 25.11914062 104.98535156 C13.74286842 78.79183593 7.32906415 50.86605128 2.625 22.8125 C2.49140076 22.01911224 2.35780151 21.22572449 2.22015381 20.40829468 C1.84041947 18.1339334 1.46907728 15.85839611 1.1015625 13.58203125 C0.98939392 12.90492096 0.87722534 12.22781067 0.76165771 11.53018188 C0.14957415 7.64866891 -0.10704136 3.92750691 0 0 Z " fill="#030202" transform="translate(241,653)"/>
<path d="M0 0 C-0.1350293 0.93932373 -0.27005859 1.87864746 -0.40917969 2.84643555 C-0.8402803 5.86107132 -1.26028206 8.87710968 -1.67675781 11.89379883 C-2.35886745 16.81403976 -3.07019484 21.72965046 -3.79150391 26.64428711 C-4.09829231 28.76419828 -4.39673879 30.88533272 -4.68701172 33.00756836 C-5.10841927 36.07758639 -5.55895838 39.14208598 -6.015625 42.20703125 C-6.20188446 43.63508842 -6.20188446 43.63508842 -6.39190674 45.09199524 C-6.76728366 47.50632114 -7.14949938 49.7096341 -8 52 C-10.37060547 53.55834961 -10.37060547 53.55834961 -13 54 C-13.67272949 54.16467773 -14.34545898 54.32935547 -15.03857422 54.49902344 C-15.7038916 54.61793945 -16.36920898 54.73685547 -17.0546875 54.859375 C-17.82208252 55.00213867 -18.58947754 55.14490234 -19.38012695 55.29199219 C-20.20343506 55.44313477 -21.02674316 55.59427734 -21.875 55.75 C-46.44718384 60.50546826 -70.14746202 67.77269476 -93 78 C-95.2049813 78.94535699 -97.41321286 79.88317767 -99.625 80.8125 C-100.56601562 81.21082031 -101.50703125 81.60914063 -102.4765625 82.01953125 C-104.64884544 82.86356069 -106.72720596 83.50382665 -109 84 C-109 84.66 -109 85.32 -109 86 C-109.52464844 86.17273438 -110.04929687 86.34546875 -110.58984375 86.5234375 C-124.03783923 91.40141257 -136.30890708 99.90170887 -148 108 C-148.96655518 108.66104736 -148.96655518 108.66104736 -149.95263672 109.33544922 C-158.68424669 115.31375765 -167.06779089 121.48633469 -175.04296875 128.4453125 C-177.70039876 130.74116353 -180.41928599 132.90337709 -183.1875 135.0625 C-188.53023254 139.4059291 -193.38096447 144.19839914 -198.25 149.0625 C-199.00692139 149.81861572 -199.76384277 150.57473145 -200.54370117 151.35375977 C-218.48634379 169.47383759 -234.09454802 190.01997757 -247 212 C-247.64324219 213.09441406 -248.28648437 214.18882812 -248.94921875 215.31640625 C-252.69750555 221.7893809 -256.29552606 228.33607885 -259.8125 234.9375 C-260.18560303 235.63520508 -260.55870605 236.33291016 -260.94311523 237.05175781 C-263.18119563 241.28933893 -265.16427785 245.5684116 -267 250 C-267.39960938 250.94101562 -267.79921875 251.88203125 -268.2109375 252.8515625 C-269.48843045 255.89525377 -270.74857869 258.94549533 -272 262 C-272.41507812 263.01191406 -272.83015625 264.02382813 -273.2578125 265.06640625 C-276.51839238 273.25886953 -279.07030442 281.57557249 -281.45214844 290.05517578 C-281.94033539 291.78819594 -282.4419004 293.51743484 -282.9453125 295.24609375 C-284.08753132 299.24385961 -285.09767608 303.11385498 -285.5625 307.25 C-286.00208001 311.01782864 -286.91942534 314.37204653 -288 318 C-298.49471761 319.98580013 -308.99694285 321.92388628 -319.51367188 323.78979492 C-321.02630967 324.05880005 -322.53867329 324.32935073 -324.05078125 324.60131836 C-326.27806741 325.00185992 -328.50610769 325.39792674 -330.734375 325.79296875 C-331.40724548 325.91480026 -332.08011597 326.03663177 -332.77337646 326.16215515 C-335.93404284 326.71732457 -338.77196857 327 -342 327 C-341.92620095 303.56880243 -335.09860349 280.15548849 -328 258 C-327.75813965 257.23864746 -327.5162793 256.47729492 -327.26708984 255.69287109 C-311.9647371 208.21136359 -284.77165435 163.22328971 -251.23046875 126.44921875 C-249.78261105 124.85936449 -248.34689357 123.25833677 -246.92578125 121.64453125 C-237.85361381 111.36497739 -228.32134042 101.55592756 -217.546875 93.0546875 C-215.08594421 91.06933536 -212.80149477 88.97907956 -210.5 86.8125 C-164.14052774 44.71427876 -101.30502217 18.5462488 -40.6730957 6.31469727 C-38.16920521 5.80880367 -35.66758118 5.29264535 -33.16601562 4.77539062 C-8.89027008 -0.19983892 -8.89027008 -0.19983892 0 0 Z " fill="#020202" transform="translate(583,226)"/>
<path d="M0 0 C13.1050524 -0.5349001 26.15426959 2.46373501 38.875 5.3125 C39.57643127 5.46817444 40.27786255 5.62384888 41.00054932 5.78424072 C51.47455907 8.11447654 61.81357878 10.60164935 72 14 C72.96566895 14.31694824 73.93133789 14.63389648 74.92626953 14.96044922 C88.13154172 19.31701267 101.09275461 23.93748695 113.6640625 29.89599609 C116.23653822 31.111792 118.82111841 32.29964718 121.40625 33.48828125 C152.07995161 47.72730612 182.47741629 65.17986296 208.06640625 87.46875 C210.78098834 89.81102589 213.55108593 92.04182659 216.375 94.25 C219.93912659 97.07255831 223.15923522 100.04244763 226.3125 103.3125 C228.00914016 105.00914016 229.78226719 106.52688933 231.625 108.0625 C241.8014706 116.88079561 250.32079979 127.38483811 258.46606445 138.05004883 C260.37599591 140.47796902 262.36148488 142.83847144 264.33984375 145.2109375 C268.86714522 150.72849813 272.89441433 156.47667275 276.8125 162.4375 C277.50263184 163.48317139 278.19276367 164.52884277 278.90380859 165.60620117 C295.60057736 191.06519594 310.02382579 217.56019802 321 246 C321.36851074 246.95277832 321.73702148 247.90555664 322.11669922 248.88720703 C328.22375496 264.82963668 333.14430758 280.71592181 336.3125 297.5 C336.57015137 298.84384766 336.57015137 298.84384766 336.83300781 300.21484375 C337.89712296 306.19521528 338.19800307 311.93116504 338 318 C328.11667336 318.45968961 318.48653002 316.22388489 308.984375 313.72265625 C304.98361257 312.75388524 300.95764713 312.12350481 296.88671875 311.52734375 C293.51316202 310.91106478 290.2834634 309.9829996 287 309 C286.63261719 307.35644531 286.63261719 307.35644531 286.2578125 305.6796875 C283.68551391 294.6207072 280.45402719 283.83086506 276.875 273.0625 C276.65749084 272.40175476 276.43998169 271.74100952 276.21588135 271.0602417 C275.58617726 269.15359982 274.94560024 267.25055965 274.3046875 265.34765625 C273.7475708 263.69262085 273.7475708 263.69262085 273.17919922 262.00415039 C272.03721515 259.09481003 270.65888466 256.64000286 269 254 C267.54545936 250.76034131 266.19855382 247.49431628 264.875 244.19921875 C264.4625 243.18472656 264.05 242.17023438 263.625 241.125 C263.24601562 240.17882812 262.86703125 239.23265625 262.4765625 238.2578125 C260.92242948 234.82885235 259.15806265 231.59562171 257.30712891 228.3203125 C256.08039624 226.14271308 254.88996124 223.94980002 253.7109375 221.74609375 C248.09744143 211.34426401 241.9436325 201.56222575 235 192 C234.51241211 191.32694824 234.02482422 190.65389648 233.52246094 189.96044922 C216.46234407 166.53752003 196.82510534 143.95574954 174 126 C172.83413181 125.04647438 171.6701746 124.09060897 170.5078125 123.1328125 C162.01906444 116.17040772 153.29777519 109.83707024 144 104 C143.26185059 103.53625977 142.52370117 103.07251953 141.76318359 102.59472656 C128.54102396 94.35255585 114.89479461 87.03737285 101 80 C100.10200684 79.54149658 99.20401367 79.08299316 98.27880859 78.6105957 C97.40820801 78.1693335 96.53760742 77.72807129 95.640625 77.2734375 C94.48481934 76.6863501 94.48481934 76.6863501 93.30566406 76.08740234 C89.9696844 74.51408029 86.54226543 73.29294257 83.05859375 72.08984375 C80.90603543 71.32284021 78.77408289 70.49672877 76.66015625 69.62890625 C66.95509053 65.66784126 57.11229906 63.22395744 46.87280273 61.00439453 C45.2593396 60.65417236 45.2593396 60.65417236 43.61328125 60.296875 C42.65204346 60.09416992 41.69080566 59.89146484 40.70043945 59.68261719 C38 59 38 59 35.38745117 57.94238281 C32.56712078 56.82913245 29.88995763 56.68831676 26.890625 56.41796875 C20.4931258 55.49292495 14.24341671 53.64703631 8 52 C-0.2376704 17.34800723 -0.2376704 17.34800723 0 0 Z " fill="#030202" transform="translate(676,226)"/>
<path d="M0 0 C2.64941406 1.3984375 2.64941406 1.3984375 5.515625 3.375 C6.5893335 4.10501221 7.66304199 4.83502441 8.76928711 5.5871582 C9.33598114 5.98005035 9.90267517 6.3729425 10.48654175 6.77774048 C13.50272875 8.86827099 16.54464967 10.92091615 19.58203125 12.98046875 C20.20207535 13.40257126 20.82211945 13.82467377 21.46095276 14.25956726 C27.54602811 18.39467091 33.72730585 22.36757723 39.9375 26.3125 C42.00010474 27.62613763 44.06260656 28.93993689 46.125 30.25390625 C47.11113281 30.88184082 48.09726562 31.50977539 49.11328125 32.15673828 C62.85612887 40.9319835 76.45603745 49.9216193 90 59 C88.30258751 62.55997608 86.26954215 65.31385945 83.6875 68.3125 C82.92824219 69.21613281 82.16898438 70.11976563 81.38671875 71.05078125 C79 73 79 73 76.53515625 73.02734375 C73.51067212 71.80170534 71.32315276 70.26441102 68.75 68.25 C67.203125 67.05310547 67.203125 67.05310547 65.625 65.83203125 C65.05652344 65.38682129 64.48804688 64.94161133 63.90234375 64.48291016 C60.98118776 62.20581808 58.03237868 59.96523033 55.08691406 57.71972656 C51.72025031 55.15217063 48.35999383 52.57627467 45 50 C45.71800781 50.70898438 46.43601562 51.41796875 47.17578125 52.1484375 C50.42447808 55.39827623 53.51509036 58.78629882 56.60668945 62.18530273 C57.08710693 62.71325439 57.56752441 63.24120605 58.0625 63.78515625 C58.54589844 64.31641113 59.02929688 64.84766602 59.52734375 65.39501953 C60.98443987 66.98304173 62.45805693 68.55389551 63.9375 70.12109375 C64.40003174 70.61593262 64.86256348 71.11077148 65.33911133 71.62060547 C66.62153949 72.99196537 67.9102151 74.35747509 69.19921875 75.72265625 C71 78 71 78 71 81 C69.51879883 82.39453125 69.51879883 82.39453125 67.45703125 83.8125 C66.34038086 84.58980469 66.34038086 84.58980469 65.20117188 85.3828125 C64.0187793 86.18332031 64.0187793 86.18332031 62.8125 87 C62.04357422 87.53367187 61.27464844 88.06734375 60.48242188 88.6171875 C49.78468983 96 49.78468983 96 46 96 C44.36865234 93.78222656 44.36865234 93.78222656 42.5859375 90.640625 C42.09602829 89.78993439 42.09602829 89.78993439 41.59622192 88.92205811 C40.88654925 87.68729224 40.1819161 86.44961969 39.48168945 85.20947266 C37.59067911 81.8613039 35.66329773 78.53408146 33.7421875 75.203125 C33.34759338 74.51641724 32.95299927 73.82970947 32.54644775 73.12219238 C28.6446176 66.34452243 24.58496914 59.6682922 20.5 53 C13.64955892 41.79508642 6.96661782 30.49799607 0.35546875 19.15039062 C-0.16183556 18.26318077 -0.16183556 18.26318077 -0.68959045 17.35804749 C-1.62156019 15.75879297 -2.55192633 14.15860426 -3.48217773 12.55834961 C-4.6009693 10.67258207 -5.783724 8.824414 -7 7 C-7.125 3.8125 -7.125 3.8125 -7 1 C-4.40116709 -0.29941646 -2.89620254 -0.29118015 0 0 Z " fill="#060605" transform="translate(435,404)"/>
<path d="M0 0 C0.495 2.475 0.495 2.475 1 5 C0.09229858 5.44243042 0.09229858 5.44243042 -0.83374023 5.89379883 C-7.03832517 8.95221205 -13.07255633 12.22982582 -19.0625 15.6875 C-20.4390979 16.47894409 -20.4390979 16.47894409 -21.84350586 17.28637695 C-24.56470522 18.85352892 -27.28294745 20.42567152 -30 22 C-30.71542969 22.41378906 -31.43085938 22.82757812 -32.16796875 23.25390625 C-39.54958446 27.53205288 -46.86603476 31.90937846 -54.140625 36.3671875 C-55.41657104 37.14756562 -56.69253141 37.92792029 -57.96850586 38.70825195 C-60.50184416 40.25787627 -63.03051012 41.81478711 -65.55688477 43.37573242 C-66.73179122 44.09577273 -67.90683407 44.81559054 -69.08203125 45.53515625 C-70.12593018 46.178479 -71.1698291 46.82180176 -72.24536133 47.48461914 C-74.58421938 48.77127091 -76.39502954 49.54704647 -79 50 C-77.80187302 46.58994627 -76.75669964 44.34829969 -74 42 C-73.34 41.401875 -72.68 40.80375 -72 40.1875 C-68.57974197 37.69356186 -65.02795926 35.7897058 -61.296875 33.80078125 C-57.64384579 31.80546553 -54.07452206 29.69395354 -50.5 27.5625 C-41.70211713 22.3348317 -32.75473817 17.3808074 -23.79296875 12.44165039 C-17.24514568 8.82751072 -10.76803753 5.12608275 -4.35668945 1.27416992 C-2 0 -2 0 0 0 Z " fill="#1A1A1A" transform="translate(542,733)"/>
<path d="M0 0 C0.99 0.33 1.98 0.66 3 1 C3 2.32 3 3.64 3 5 C0.55322266 6.92285156 0.55322266 6.92285156 -2.8359375 8.890625 C-3.7277623 9.41484039 -3.7277623 9.41484039 -4.63760376 9.949646 C-5.89630108 10.68592628 -7.15917165 11.41511124 -8.42578125 12.13769531 C-10.36839797 13.24623261 -12.29814805 14.37478288 -14.2265625 15.5078125 C-23.66069091 21 -23.66069091 21 -26 21 C-24.80187302 17.58994627 -23.75669964 15.34829969 -21 13 C-20.01 12.1028125 -20.01 12.1028125 -19 11.1875 C-15.41105106 8.57055807 -11.63960781 6.54091594 -7.71875 4.46484375 C-4.96370195 3.03143603 -4.96370195 3.03143603 -2.34375 1.25390625 C-1.5703125 0.84011719 -0.796875 0.42632813 0 0 Z " fill="#0F0F0F" transform="translate(489,762)"/>
<path d="M0 0 C4.66086487 2.72831114 7.70065627 5.82444481 11.16796875 9.94140625 C13.47405884 12.53268446 16.02434949 14.68887265 18.66796875 16.92578125 C23.67082642 21.37555918 28.30261891 26.2321582 33 31 C28.9470021 31 28.01918741 29.5425207 25 26.875 C16.73663686 19.72493241 7.84051328 13.40951104 -1 7 C-0.649375 6.401875 -0.29875 5.80375 0.0625 5.1875 C1.33304698 2.89186786 1.33304698 2.89186786 0 0 Z " fill="#DEDDDE" transform="translate(752,739)"/>
<path d="M0 0 C0.33 0 0.66 0 1 0 C1.98929545 23.00901242 2.11772198 45.97358048 2 69 C1.67 69 1.34 69 1 69 C0.67 66.03 0.34 63.06 0 60 C-0.33 64.62 -0.66 69.24 -1 74 C-1.33 74 -1.66 74 -2 74 C-2.21096797 59.32600567 -1.60589143 44.67672659 -1.07287598 30.01477051 C-0.95015293 26.62189974 -0.83069955 23.22891385 -0.7109375 19.8359375 C-0.47690681 13.22385062 -0.23971737 6.61188303 0 0 Z " fill="#C5C5C5" transform="translate(630,167)"/>
<path d="M0 0 C0.33 0 0.66 0 1 0 C1.33 5.94 1.66 11.88 2 18 C2 17.01 2 16.02 2 15 C2 14.34 2 13.68 2 13 C2.99 13 3.98 13 5 13 C5.09295076 17.83963628 4.76536425 22.40084057 4.0625 27.1875 C3.23766478 32.995955 2.66380756 38.75232156 2.34375 44.609375 C2 47 2 47 0 50 C0 33.5 0 17 0 0 Z " fill="#AEADAE" transform="translate(629,998)"/>
<path d="M0 0 C0.495 0.99 0.495 0.99 1 2 C-4.42521832 8.41654854 -10.23498677 14.38622856 -16.1875 20.3125 C-17.07630859 21.20517578 -17.96511719 22.09785156 -18.88085938 23.01757812 C-19.73873047 23.87416016 -20.59660156 24.73074219 -21.48046875 25.61328125 C-22.63905396 26.77017456 -22.63905396 26.77017456 -23.82104492 27.95043945 C-25.7935554 29.80581486 -27.79815874 31.42850818 -30 33 C-30.66 32.67 -31.32 32.34 -32 32 C-6.27503582 4.42771219 -6.27503582 4.42771219 0 0 Z " fill="#171717" transform="translate(361,323)"/>
<path d="M0 0 C1.11955078 0.13728516 1.11955078 0.13728516 2.26171875 0.27734375 C6.04369341 0.75260074 9.77291538 1.31154899 13.5 2.125 C13.5 2.455 13.5 2.785 13.5 3.125 C-10.59 3.125 -34.68 3.125 -59.5 3.125 C-59.5 2.795 -59.5 2.465 -59.5 2.125 C-36.73 1.63 -36.73 1.63 -13.5 1.125 C-13.5 0.795 -13.5 0.465 -13.5 0.125 C-8.82126338 -1.19321548 -4.73012304 -0.62904918 0 0 Z " fill="#E8E8E8" transform="translate(1044.5,590.875)"/>
<path d="M0 0 C6.17141659 3.88570674 11.80018503 8.21047404 17.40234375 12.875 C20.50516403 15.41324697 23.70004337 17.72669654 27 20 C26.01 20.33 25.02 20.66 24 21 C24 20.34 24 19.68 24 19 C23.10539062 19.25007813 22.21078125 19.50015625 21.2890625 19.7578125 C18 20 18 20 15.5859375 18.3046875 C14.85632813 17.50289063 14.12671875 16.70109375 13.375 15.875 C12.60414063 15.04355469 11.83328125 14.21210938 11.0390625 13.35546875 C8.959548 10.95327097 6.98453716 8.48067145 5 6 C4.0925 5.278125 3.185 4.55625 2.25 3.8125 C1.5075 3.214375 0.765 2.61625 0 2 C0 1.34 0 0.68 0 0 Z " fill="#E8E8E8" transform="translate(478,452)"/>
<path d="M0 0 C0.33 1.65 0.66 3.3 1 5 C-0.6029053 5.81498562 -2.20737278 6.62689927 -3.8125 7.4375 C-5.15248047 8.11619141 -5.15248047 8.11619141 -6.51953125 8.80859375 C-9 10 -9 10 -12 11 C-14.1875 9.5625 -14.1875 9.5625 -16 8 C-13.71125827 6.66141476 -11.41930344 5.32898986 -9.125 4 C-8.47402344 3.6184375 -7.82304688 3.236875 -7.15234375 2.84375 C-2.2265625 0 -2.2265625 0 0 0 Z " fill="#262626" transform="translate(542,733)"/>
<path d="M0 0 C0.66 0.33 1.32 0.66 2 1 C2 2.66666667 2 4.33333333 2 6 C-0.43056846 7.66473242 -2.84314511 9.19287399 -5.375 10.6875 C-6.42300781 11.33041992 -6.42300781 11.33041992 -7.4921875 11.98632812 C-9.28902931 13.05925001 -11.14169878 14.03744173 -13 15 C-13.66 14.67 -14.32 14.34 -15 14 C-14.16855469 13.24074219 -13.33710938 12.48148438 -12.48046875 11.69921875 C-11.38277925 10.69534886 -10.28512484 9.6914406 -9.1875 8.6875 C-8.64029297 8.18798828 -8.09308594 7.68847656 -7.52929688 7.17382812 C-4.96878163 4.83056872 -2.42060466 2.48855146 0 0 Z " fill="#C5C5C6" transform="translate(475,764)"/>
<path d="M0 0 C0 1.32 0 2.64 0 4 C-1.77065111 4.64633275 -3.54152753 5.2920483 -5.3125 5.9375 C-6.79169922 6.47697266 -6.79169922 6.47697266 -8.30078125 7.02734375 C-10.1920563 7.70885965 -12.09284329 8.3642811 -14 9 C-13.8046875 7.20703125 -13.8046875 7.20703125 -13 5 C-10.8203125 3.26171875 -10.8203125 3.26171875 -8.125 1.6875 C-7.24070312 1.15511719 -6.35640625 0.62273438 -5.4453125 0.07421875 C-3 -1 -3 -1 0 0 Z " fill="#131313" transform="translate(492,763)"/>
<path d="M0 0 C5.29012124 4.40843437 10.18808428 9.07559794 15 14 C10.83865996 14 8.92958154 11.72649844 5.9375 9.125 C5.39544922 8.66480469 4.85339844 8.20460938 4.29492188 7.73046875 C2.12652568 5.88103318 0.01578933 4.01578933 -2 2 C-1.34 2 -0.68 2 0 2 C0 1.34 0 0.68 0 0 Z " fill="#BABABA" transform="translate(770,756)"/>
<path d="M0 0 C0.66 0.33 1.32 0.66 2 1 C-1.88476156 6.52045063 -6.8023806 10.76937956 -12 15 C-12.66 14.67 -13.32 14.34 -14 14 C-9.38 9.38 -4.76 4.76 0 0 Z " fill="#E2E1E3" transform="translate(525,717)"/>
<path d="M0 0 C0.33 0.99 0.66 1.98 1 3 C1.7425 2.484375 2.485 1.96875 3.25 1.4375 C6 0 6 0 8.171875 0.41015625 C8.77515625 0.60480469 9.3784375 0.79945313 10 1 C8.37829621 2.00533667 6.75252763 3.00411907 5.125 4 C4.22007812 4.556875 3.31515625 5.11375 2.3828125 5.6875 C0 7 0 7 -2 7 C-1.67 5.68 -1.34 4.36 -1 3 C-1.99 2.67 -2.98 2.34 -4 2 C-2.68 1.34 -1.36 0.68 0 0 Z " fill="#1E1D1E" transform="translate(477,769)"/>
<path d="M0 0 C0 3.88291746 -1.37860494 5.46752535 -3.5 8.6875 C-4.1496875 9.68136719 -4.799375 10.67523438 -5.46875 11.69921875 C-5.9740625 12.45847656 -6.479375 13.21773438 -7 14 C-8.32 13.34 -9.64 12.68 -11 12 C-10.54109375 11.55269531 -10.0821875 11.10539062 -9.609375 10.64453125 C-6.16447701 7.25029352 -2.92744915 3.86423288 0 0 Z " fill="#CDCDCF" transform="translate(796,427)"/>
<path d="M0 0 C0.6484375 1.80859375 0.6484375 1.80859375 1 4 C-0.5954349 6.05727132 -2.26526288 8.05874656 -4 10 C-4.33 10.99 -4.66 11.98 -5 13 C-7.0625 13.6875 -7.0625 13.6875 -9 14 C-7.45158425 10.65291949 -5.50894136 7.75332488 -3.375 4.75 C-2.74335938 3.85796875 -2.11171875 2.9659375 -1.4609375 2.046875 C-0.73777344 1.03367187 -0.73777344 1.03367187 0 0 Z " fill="#282829" transform="translate(315,372)"/>
<path d="M0 0 C-0.33 2.31 -0.66 4.62 -1 7 C-1.515625 6.360625 -2.03125 5.72125 -2.5625 5.0625 C-5.65935623 2.44208319 -8.02067623 2.30610183 -12 2 C-12 1.67 -12 1.34 -12 1 C-7.95858806 0.36605303 -4.0934693 -0.12404452 0 0 Z " fill="#3C3C3D" transform="translate(583,226)"/>
<path d="M0 0 C0.33 0 0.66 0 1 0 C1 1.98 1 3.96 1 6 C3.97 6 6.94 6 10 6 C8.3125 8.0625 8.3125 8.0625 6 10 C3.3125 9.875 3.3125 9.875 1 9 C-0.4783226 6.04335481 -0.06032783 3.25770263 0 0 Z " fill="#464545" transform="translate(637,583)"/>
<path d="M0 0 C0.66 0.33 1.32 0.66 2 1 C-0.12251117 3.30104014 -2.15548556 4.81894459 -4.9375 6.25 C-5.60652344 6.60578125 -6.27554688 6.9615625 -6.96484375 7.328125 C-9.38269269 8.12634 -10.63011757 7.82707306 -13 7 C-10.88002166 5.80266012 -8.75486324 4.61701287 -6.625 3.4375 C-6.02171875 3.09525391 -5.4184375 2.75300781 -4.796875 2.40039062 C-3.23021759 1.53872905 -1.61709138 0.76281817 0 0 Z " fill="#C8C7C8" transform="translate(823,944)"/>
<path d="M0 0 C3.62613199 0.56959153 5.25517741 1.92374534 7.75 4.5625 C8.36359375 5.20316406 8.9771875 5.84382812 9.609375 6.50390625 C10.06828125 6.99761719 10.5271875 7.49132812 11 8 C10.34 8.66 9.68 9.32 9 10 C7.49702124 8.52386015 5.99768715 7.04400843 4.5 5.5625 C3.6646875 4.73878906 2.829375 3.91507813 1.96875 3.06640625 C0 1 0 1 0 0 Z " fill="#111111" transform="translate(687,672)"/>
<path d="M0 0 C1.44319692 0.90767102 2.87934106 1.82656106 4.3125 2.75 C5.11300781 3.26046875 5.91351563 3.7709375 6.73828125 4.296875 C9.00368861 6.00277761 10.42684167 7.65808145 12 10 C11.34 10.66 10.68 11.32 10 12 C8.9171875 10.63875 8.9171875 10.63875 7.8125 9.25 C6.01868959 7.07692682 4.42395671 5.53916537 2.1875 3.75 C1.465625 3.1725 0.74375 2.595 0 2 C0 1.34 0 0.68 0 0 Z " fill="#B9B8B8" transform="translate(478,452)"/>
<path d="M0 0 C0.625 1.875 0.625 1.875 1 4 C-1.6855594 6.6855594 -4.37621328 7.06049974 -8 8 C-7.04578192 6.85073734 -6.08647955 5.70569459 -5.125 4.5625 C-4.59132813 3.92441406 -4.05765625 3.28632813 -3.5078125 2.62890625 C-2 1 -2 1 0 0 Z " fill="#EEEEEE" transform="translate(787,439)"/>
<path d="M0 0 C0.66 0.33 1.32 0.66 2 1 C-0.69728168 4.33193619 -4.02060187 5.60371996 -8 7 C-10.22265625 6.578125 -10.22265625 6.578125 -12 6 C-10.04669132 4.96958487 -8.08718472 3.9509107 -6.125 2.9375 C-5.03445313 2.36902344 -3.94390625 1.80054688 -2.8203125 1.21484375 C-1.42425781 0.61349609 -1.42425781 0.61349609 0 0 Z " fill="#C4C4C4" transform="translate(804,954)"/>
<path d="M0 0 C0.66 0.33 1.32 0.66 2 1 C2 2.66666667 2 4.33333333 2 6 C0.02 6.33 -1.96 6.66 -4 7 C-2.92598892 4.08482708 -2.22189824 2.22189824 0 0 Z " fill="#DFDFE0" transform="translate(475,764)"/>
<path d="M0 0 C0.66 0 1.32 0 2 0 C1.67 0.66 1.34 1.32 1 2 C0.67 1.34 0.34 0.68 0 0 Z M0 2 C0.66 3.32 1.32 4.64 2 6 C-2.75 9 -2.75 9 -5 9 C-3.75023244 5.34683329 -3.32901247 4.21934164 0 2 Z " fill="#1A1A1A" transform="translate(468,774)"/>
<path d="M0 0 C-0.33 0.99 -0.66 1.98 -1 3 C-3.64 3 -6.28 3 -9 3 C-9.33 2.01 -9.66 1.02 -10 0 C-6.30581799 -1.231394 -3.7943739 -0.64432764 0 0 Z " fill="#F6F6F6" transform="translate(1036,590)"/>
<path d="M0 0 C0.66 0.33 1.32 0.66 2 1 C-1.16548033 4.88901869 -4.40365256 8.50640535 -8 12 C-8.66 11.67 -9.32 11.34 -10 11 C-6.7 7.37 -3.4 3.74 0 0 Z " fill="#DCDBDD" transform="translate(736,493)"/>
<path d="M0 0 C1.65 0 3.3 0 5 0 C5 0.99 5 1.98 5 3 C1.535 4.485 1.535 4.485 -2 6 C-1.34 4.02 -0.68 2.04 0 0 Z " fill="#111111" transform="translate(499,757)"/>
<path d="M0 0 C3.79588866 0.54226981 5.47211993 2.20127563 8 5 C5.6875 5.6875 5.6875 5.6875 3 6 C1.1875 4.75 1.1875 4.75 0 3 C0 2.01 0 1.02 0 0 Z " fill="#E2E2E2" transform="translate(489,462)"/>
<path d="M0 0 C0.33 0 0.66 0 1 0 C2.38766322 6.05525768 1.49118146 9.32010626 -1 15 C-2.20220203 11.46905698 -1.79532349 8.87101018 -1.0625 5.25 C-0.86785156 4.26515625 -0.67320312 3.2803125 -0.47265625 2.265625 C-0.31667969 1.51796875 -0.16070313 0.7703125 0 0 Z " fill="#B2B2B3" transform="translate(671,944)"/>
<path d="M0 0 C0.33 0 0.66 0 1 0 C2.08586886 5.32075743 1.86538524 8.89473514 0 14 C-0.66 14.99 -1.32 15.98 -2 17 C-1.34 11.39 -0.68 5.78 0 0 Z " fill="#BBBABC" transform="translate(656,1039)"/>
<path d="M0 0 C1.98 0 3.96 0 6 0 C6 0.33 6 0.66 6 1 C4.35 1 2.7 1 1 1 C1.350625 1.680625 1.70125 2.36125 2.0625 3.0625 C3.22620603 6.7087789 2.72845102 9.28489978 2 13 C1.67 13 1.34 13 1 13 C0.67 8.71 0.34 4.42 0 0 Z " fill="#2D2D2D" transform="translate(241,653)"/>
<path d="M0 0 C0.66 0.99 1.32 1.98 2 3 C1.01 4.485 1.01 4.485 0 6 C-0.66 6 -1.32 6 -2 6 C-2.33 7.65 -2.66 9.3 -3 11 C-3.66 11 -4.32 11 -5 11 C-3.77472971 6.94718288 -2.30119506 3.55639236 0 0 Z " fill="#D4D3D5" transform="translate(328,450)"/>
<path d="M0 0 C1.98 1.65 3.96 3.3 6 5 C5.01 5.66 4.02 6.32 3 7 C1.35 5.35 -0.3 3.7 -2 2 C-1.34 2 -0.68 2 0 2 C0 1.34 0 0.68 0 0 Z " fill="#C2C2C3" transform="translate(770,756)"/>
<path d="M0 0 C0.66 0.33 1.32 0.66 2 1 C1.25 4.375 1.25 4.375 0 8 C-2.078125 9.2265625 -2.078125 9.2265625 -4 10 C-3.52449439 8.51965236 -3.04448784 7.04074979 -2.5625 5.5625 C-2.29566406 4.73878906 -2.02882813 3.91507813 -1.75390625 3.06640625 C-1 1 -1 1 0 0 Z " fill="#232323" transform="translate(942,735)"/>
<path d="M0 0 C0.99 0.33 1.98 0.66 3 1 C-0.96 4.465 -0.96 4.465 -5 8 C-5.66 7.67 -6.32 7.34 -7 7 C-4.69 4.69 -2.38 2.38 0 0 Z " fill="#121313" transform="translate(336,348)"/>
<path d="M0 0 C-2.3500189 2.72107452 -4.55674975 3.96702492 -8 5 C-8.99 4.67 -9.98 4.34 -11 4 C-9.73760288 3.13341385 -8.46472499 2.28207941 -7.1875 1.4375 C-6.47980469 0.96183594 -5.77210938 0.48617188 -5.04296875 -0.00390625 C-3 -1 -3 -1 0 0 Z " fill="#D4D3D5" transform="translate(453,324)"/>
<path d="M0 0 C0.66 0 1.32 0 2 0 C2 0.66 2 1.32 2 2 C3.32 2.66 4.64 3.32 6 4 C4.0625 4.5625 4.0625 4.5625 2 5 C1.67 4.67 1.34 4.34 1 4 C0.34 4.99 -0.32 5.98 -1 7 C-0.67 4.69 -0.34 2.38 0 0 Z " fill="#B4B4B4" transform="translate(705,733)"/>
<path d="M0 0 C0.33 0 0.66 0 1 0 C1.33 1.65 1.66 3.3 2 5 C4.97 5.495 4.97 5.495 8 6 C4.91190305 7.76462683 3.76687864 8 0 8 C0 5.36 0 2.72 0 0 Z " fill="#424342" transform="translate(241,545)"/>
<path d="M0 0 C0.33 0 0.66 0 1 0 C2.0070238 5.03511899 1.97387813 8.23947038 0 13 C-0.33 13 -0.66 13 -1 13 C-1.07654536 8.48382401 -1.10228696 4.40914783 0 0 Z " fill="#B2B1B2" transform="translate(692,812)"/>
<path d="M0 0 C0.66 0.33 1.32 0.66 2 1 C-0.3125 3.5 -0.3125 3.5 -3 6 C-3.99 6 -4.98 6 -6 6 C-5 3 -5 3 -2.5625 1.25 C-1.716875 0.8375 -0.87125 0.425 0 0 Z " fill="#080808" transform="translate(467,775)"/>
<path d="M0 0 C0.99 0.33 1.98 0.66 3 1 C1.71034824 2.37562854 0.37310707 3.70766393 -1 5 C-1.66 5 -2.32 5 -3 5 C-2.625 3.0625 -2.625 3.0625 -2 1 C-1.34 0.67 -0.68 0.34 0 0 Z " fill="#0D0D0D" transform="translate(481,767)"/>
<path d="M0 0 C2 1 2 1 4 4 C3.01 4.33 2.02 4.66 1 5 C-1.1875 3.5625 -1.1875 3.5625 -3 2 C-2.01 1.34 -1.02 0.68 0 0 Z " fill="#2C2C2C" transform="translate(529,739)"/>
<path d="M0 0 C0.99 0 1.98 0 3 0 C2.67 1.98 2.34 3.96 2 6 C1.01 6.33 0.02 6.66 -1 7 C-0.67 4.69 -0.34 2.38 0 0 Z " fill="#E6E6E7" transform="translate(1007,704)"/>
<path d="M0 0 C0.66 0.33 1.32 0.66 2 1 C0.92598892 3.91517292 0.22189824 5.77810176 -2 8 C-2 4.23312136 -1.76462683 3.08809695 0 0 Z " fill="#19191A" transform="translate(776,461)"/>
</svg>
